# xmcd
#
# Track frame offsets:
#	150
#	13060
#	26660
#	39670
#	53563
#	67823
#	81655
#	95240
#	111088
#	124058
#	136495
#	150563
#	164245
#
# Disc length: 2354 seconds
#
# Revision: 0
# Processed by: cddbd v1.5.2PL0 Copyright (c) Steve Scherf et al.
# Submitted via: EasyCDDAExtractor 15.0.0.1
#
DISCID=b409300d
DTITLE=Edson - Voz e violao
DYEAR=1900
DGENRE=
TTITLE0=E so Voce Me Amar
TTITLE1=Te Amo
TTITLE2=Desculpa Se Eu Te Amo
TTITLE3=Cansei
TTITLE4=Da Cabeca Aos Pes
TTITLE5=So Com Voce
TTITLE6=Pra Conquistar Uma Mulher
TTITLE7=So Quem Ama
TTITLE8=Raridade
TTITLE9=Oi To Te Ligando
TTITLE10=Queria So Uma Aventura
TTITLE11=Diga Que Ainda Nao Me Esqueceu
TTITLE12=Bate Na Mesa
EXTD=
EXTT0=
EXTT1=
EXTT2=
EXTT3=
EXTT4=
EXTT5=
EXTT6=
EXTT7=
EXTT8=
EXTT9=
EXTT10=
EXTT11=
EXTT12=
PLAYORDER=
